<svg width="200" height="89" viewBox="0 0 200 89" fill="none" xmlns="http://www.w3.org/2000/svg">
<g clip-path="url(#clip0_2_2)">
<path d="M22 64C33.0457 64 42 55.0457 42 44C42 32.9543 33.0457 24 22 24C10.9543 24 2 32.9543 2 44C2 55.0457 10.9543 64 22 64Z" fill="#1E1E1E"/>
<path d="M21.1136 35.5455H23.6364L29.5682 50.0341H29.7727L35.7045 35.5455H38.2273V53H36.25V39.7386H36.0795L30.625 53H28.7159L23.2614 39.7386H23.0909V53H21.1136V35.5455Z" fill="#FFBF00"/>
<path d="M58.7061 35.5455V53H56.6607L47.1493 39.2955H46.9788V53H44.8652V35.5455H46.9107L56.4561 49.2841H56.6266V35.5455H58.7061ZM65.3355 53V35.5455H75.8696V37.4205H67.4491V43.3182H75.3241V45.1932H67.4491V51.125H76.006V53H65.3355ZM82.0793 35.5455H84.602L90.5338 50.0341H90.7384L96.6702 35.5455H99.1929V53H97.2156V39.7386H97.0452L91.5906 53H89.6815L84.227 39.7386H84.0565V53H82.0793V35.5455ZM120.558 44.2727C120.558 46.1136 120.226 47.7045 119.561 49.0455C118.896 50.3864 117.984 51.4205 116.825 52.1477C115.666 52.875 114.342 53.2386 112.854 53.2386C111.365 53.2386 110.041 52.875 108.882 52.1477C107.723 51.4205 106.811 50.3864 106.146 49.0455C105.481 47.7045 105.149 46.1136 105.149 44.2727C105.149 42.4318 105.481 40.8409 106.146 39.5C106.811 38.1591 107.723 37.125 108.882 36.3977C110.041 35.6705 111.365 35.3068 112.854 35.3068C114.342 35.3068 115.666 35.6705 116.825 36.3977C117.984 37.125 118.896 38.1591 119.561 39.5C120.226 40.8409 120.558 42.4318 120.558 44.2727ZM118.513 44.2727C118.513 42.7614 118.26 41.4858 117.754 40.446C117.254 39.4062 116.575 38.6193 115.717 38.0852C114.865 37.5511 113.91 37.2841 112.854 37.2841C111.797 37.2841 110.839 37.5511 109.981 38.0852C109.129 38.6193 108.45 39.4062 107.944 40.446C107.444 41.4858 107.194 42.7614 107.194 44.2727C107.194 45.7841 107.444 47.0597 107.944 48.0994C108.45 49.1392 109.129 49.9261 109.981 50.4602C110.839 50.9943 111.797 51.2614 112.854 51.2614C113.91 51.2614 114.865 50.9943 115.717 50.4602C116.575 49.9261 117.254 49.1392 117.754 48.0994C118.26 47.0597 118.513 45.7841 118.513 44.2727ZM136.058 39.9091C135.955 39.0455 135.54 38.375 134.813 37.8977C134.086 37.4205 133.194 37.1818 132.137 37.1818C131.364 37.1818 130.688 37.3068 130.109 37.5568C129.535 37.8068 129.086 38.1506 128.762 38.5881C128.444 39.0256 128.285 39.5227 128.285 40.0795C128.285 40.5455 128.396 40.946 128.617 41.2812C128.844 41.6108 129.134 41.8864 129.487 42.108C129.839 42.3239 130.208 42.5028 130.594 42.6449C130.981 42.7812 131.336 42.892 131.66 42.9773L133.433 43.4545C133.887 43.5739 134.393 43.7386 134.95 43.9489C135.512 44.1591 136.049 44.446 136.56 44.8097C137.077 45.1676 137.504 45.6278 137.839 46.1903C138.174 46.7528 138.342 47.4432 138.342 48.2614C138.342 49.2045 138.094 50.0568 137.6 50.8182C137.112 51.5795 136.396 52.1847 135.452 52.6335C134.515 53.0824 133.376 53.3068 132.035 53.3068C130.785 53.3068 129.702 53.1051 128.788 52.7017C127.879 52.2983 127.163 51.7358 126.64 51.0142C126.123 50.2926 125.83 49.4545 125.762 48.5H127.944C128.001 49.1591 128.222 49.7045 128.609 50.1364C129.001 50.5625 129.495 50.8807 130.092 51.0909C130.694 51.2955 131.342 51.3977 132.035 51.3977C132.842 51.3977 133.566 51.267 134.208 51.0057C134.85 50.7386 135.359 50.3693 135.734 49.8977C136.109 49.4205 136.296 48.8636 136.296 48.2273C136.296 47.6477 136.134 47.1761 135.81 46.8125C135.487 46.4489 135.06 46.1534 134.532 45.9261C134.004 45.6989 133.433 45.5 132.819 45.3295L130.671 44.7159C129.308 44.3239 128.228 43.7642 127.433 43.0369C126.637 42.3097 126.239 41.358 126.239 40.1818C126.239 39.2045 126.504 38.3523 127.032 37.625C127.566 36.892 128.282 36.3239 129.18 35.9205C130.083 35.5114 131.092 35.3068 132.205 35.3068C133.33 35.3068 134.33 35.5085 135.205 35.9119C136.08 36.3097 136.773 36.8551 137.285 37.5483C137.802 38.2415 138.075 39.0284 138.103 39.9091H136.058ZM146.33 35.5455V53H144.217V35.5455H146.33ZM166.809 35.5455V53H164.764L155.252 39.2955H155.082V53H152.968V35.5455H155.014L164.559 49.2841H164.73V35.5455H166.809ZM173.439 53V35.5455H183.973V37.4205H175.552V43.3182H183.427V45.1932H175.552V51.125H184.109V53H173.439Z" fill="#1E1E1E"/>
</g>
<defs>
<clipPath id="clip0_2_2">
<rect width="200" height="89" fill="white"/>
</clipPath>
</defs>
</svg>
